<svg version="1.2" xmlns="http://www.w3.org/2000/svg" viewBox="0 0 1388 1261" width="1388" height="1261">
	<title>logo-gupshup-svg</title>
	<style>
		.s0 { fill: #5e34f1;stroke: #5e34f1;stroke-width: 32.2 } 
		.s1 { fill: #ff3964 } 
		.s2 { fill: #5e34f1 } 
		.s3 { fill: #ffffff } 
	</style>
	<g id="logo">
		<path id="Path_81" class="s0" d="m1023.6 684.1c-0.8 6.1-2 12.1-3.8 18-1.8 5.9-4.1 11.6-6.8 17-2.8 5.5-6 10.7-9.7 15.7-3.7 4.9-7.7 9.5-12.2 13.7-4.4 4.5-9.1 8.7-14.2 12.4-5.1 3.7-10.5 7-16.1 9.8-5.6 2.9-11.5 5.2-17.5 7.1-6 1.8-12.2 3.2-18.4 4q-39.8 3.7-79.6 6.6-39.9 2.9-79.8 5.1-39.9 2.1-79.8 3.4-39.9 1.3-79.9 1.8c-10.3 0.1-20.6 1.2-30.7 3.3-10.1 2.1-20 5.2-29.5 9.2-9.5 4.1-18.6 9-27.2 14.8-8.5 5.7-16.5 12.3-23.8 19.6l-139.9 140v-110.6c0-10.8-2-21.6-6-31.7-4-10.1-9.8-19.4-17.2-27.3-7.4-8-16.2-14.4-26-19.1-9.8-4.8-20.4-7.6-31.2-8.4-27.4-1.9-55-4.3-82.3-6.8-6.2-0.8-12.4-2.2-18.4-4-6-1.9-11.9-4.2-17.5-7.1-5.6-2.8-11-6.1-16.1-9.8-5.1-3.7-9.8-7.9-14.2-12.4-4.5-4.2-8.5-8.8-12.2-13.7-3.6-4.9-6.8-10.1-9.6-15.5-2.7-5.5-5-11.2-6.7-17-1.8-5.9-3-11.9-3.8-17.9q-4.7-60.6-7-121.4-2.3-60.7-2.3-121.5 0-60.7 2.3-121.5 2.3-60.7 7-121.3c0.8-6.1 2-12.1 3.8-18 1.7-5.8 4-11.5 6.8-17 2.7-5.5 5.9-10.7 9.6-15.6 3.7-5 7.7-9.6 12.2-13.8 4.4-4.5 9.1-8.6 14.2-12.4 5.1-3.7 10.5-7 16.1-9.8 5.6-2.8 11.5-5.2 17.5-7.1 6-1.8 12.2-3.2 18.4-4q91.4-8.6 183-12.9 91.7-4.3 183.4-4.3 91.8 0 183.4 4.3 91.7 4.3 183 12.9c6.2 0.8 12.4 2.2 18.4 4 6 1.9 11.9 4.3 17.5 7.1 5.7 2.8 11 6.1 16.1 9.8 5.1 3.8 9.8 7.9 14.2 12.4 4.5 4.2 8.6 8.8 12.2 13.8 3.7 4.9 6.9 10.1 9.7 15.6 2.8 5.5 5 11.2 6.8 17 1.8 5.9 3.1 11.9 3.8 18q4.6 60.6 7 121.3 2.3 60.7 2.3 121.5 0 60.7-2.4 121.4-2.3 60.7-6.9 121.3z"/>
		<path id="Path_82" class="s1" d="m1057.4 1260.6q-5.8 0-11.5-1.1-5.7-1.2-11-3.4-5.4-2.2-10.2-5.5-4.8-3.2-8.9-7.3l-182.1-182.1c-3.5-3.5-7.3-6.7-11.4-9.4-4.1-2.8-8.4-5.2-13-7.1-4.5-1.9-9.2-3.4-14.1-4.4-4.8-1-9.7-1.6-14.7-1.6-63.4-0.8-92.8-1.6-141.8-4.9-10.7-1.1-20.6-6.4-27.5-14.7-6.9-8.2-10.4-18.9-9.7-29.7 0.7-10.7 5.6-20.8 13.5-28.1 8-7.3 18.5-11.2 29.3-10.9 47 3.2 75.5 3.9 137.2 4.6 10.4 0.2 20.7 1.3 30.8 3.4 10.1 2.1 20 5.1 29.5 9.2 9.5 4 18.6 8.9 27.2 14.7 8.5 5.8 16.5 12.4 23.8 19.7l139.8 139.9v-110.3c0-10.9 2.1-21.6 6.1-31.7 4-10.1 9.8-19.4 17.2-27.3 7.4-8 16.2-14.5 26-19.2 9.7-4.7 20.3-7.5 31.1-8.3 27.4-2 55.1-4.3 82.3-6.9 6.3-0.8 12.5-2.1 18.5-4 6-1.8 11.9-4.2 17.5-7 5.7-2.9 11.1-6.2 16.2-9.9 5-3.7 9.8-7.9 14.2-12.4 4.5-4.2 8.6-8.8 12.2-13.7 3.7-4.9 6.9-10.2 9.7-15.6 2.7-5.5 5-11.2 6.8-17.1 1.7-5.9 3-11.9 3.7-18q4.7-60.6 7-121.3 2.4-60.7 2.4-121.5 0-60.8-2.4-121.5-2.3-60.7-7-121.3c-1.7-10.8-4.9-21.4-9.5-31.3-4.6-9.9-10.6-19.2-17.7-27.4-7.2-8.3-15.5-15.6-24.6-21.5-9.2-6-19.2-10.7-29.6-13.9-10.2-3.6-18.7-10.9-23.6-20.5-4.9-9.6-5.9-20.8-2.8-31.1 3.1-10.4 10.1-19.1 19.5-24.4 9.4-5.3 20.5-6.8 30.9-4.1 18.5 5.6 36.1 13.9 52.2 24.5 16.1 10.7 30.6 23.6 43 38.4 12.5 14.8 22.7 31.3 30.4 49 7.7 17.8 12.8 36.5 15.1 55.7q4.8 62.2 7.2 124.6 2.4 62.4 2.4 124.8 0 62.4-2.4 124.8-2.4 62.4-7.2 124.6c-2.6 22-8.9 43.4-18.6 63.3-9.6 20-22.5 38.2-38.2 53.9-15.6 15.7-33.8 28.6-53.7 38.4-19.9 9.7-41.3 16-63.2 18.7h-0.3c-27.9 2.6-56.2 5-84.2 7q-0.6 0.1-1.1 0.4-0.5 0.2-0.9 0.7-0.4 0.4-0.6 1-0.2 0.5-0.2 1.1v170.1c0 7.7-1.5 15.4-4.5 22.6-2.9 7.1-7.3 13.6-12.8 19.1-5.5 5.5-12 9.8-19.1 12.8-7.2 2.9-14.9 4.4-22.6 4.4z"/>
		<path id="Path_83" fill-rule="evenodd" class="s2" d="m1114.1 316.6q2.4 62.3 2.4 124.7 0 62.4-2.4 124.7-2.4 62.4-7.2 124.6c-2.7 22-8.9 43.4-18.6 63.3-9.7 20-22.6 38.2-38.2 53.8-15.7 15.7-33.8 28.7-53.7 38.4-19.9 9.7-41.3 16.1-63.3 18.8h-0.3c-108.8 10.2-218.5 15.9-325.9 17.2-5 0.1-9.9 0.6-14.7 1.6-4.8 1-9.6 2.5-14.1 4.4-4.6 2-8.9 4.3-13 7.1-4.1 2.8-7.9 5.9-11.4 9.5l-182.2 182.2q-4.1 4.1-8.9 7.3-4.8 3.2-10.1 5.4-5.4 2.3-11 3.4-5.7 1.1-11.5 1.1-2.9 0-5.7-0.3-2.9-0.3-5.8-0.8-2.8-0.6-5.6-1.4-2.7-0.9-5.4-2c-5.3-2.2-10.3-5.2-14.8-8.8-4.5-3.7-8.4-8-11.6-12.8-3.2-4.8-5.7-10-7.4-15.6-1.7-5.5-2.5-11.2-2.5-17v-170.1q0-0.6-0.2-1.2-0.2-0.5-0.6-1-0.4-0.4-0.9-0.7-0.5-0.3-1.1-0.4c-28-1.9-56.3-4.2-84.2-6.9h-0.3c-22-2.7-43.4-9-63.2-18.7-19.9-9.8-38.1-22.7-53.7-38.4-15.7-15.7-28.6-33.8-38.3-53.8-9.6-19.9-15.9-41.3-18.6-63.3q-4.8-62.2-7.2-124.6-2.4-62.4-2.4-124.8 0-62.4 2.4-124.8 2.4-62.3 7.2-124.6c2.6-22 8.9-43.4 18.6-63.3 9.7-20 22.6-38.2 38.2-53.9 15.7-15.7 33.8-28.7 53.7-38.4 19.9-9.7 41.3-16.1 63.3-18.8h0.3q93.4-8.8 187-13.2 93.6-4.4 187.3-4.4 93.7 0 187.3 4.4 93.6 4.4 186.9 13.2h0.4c22 2.7 43.3 9.1 63.2 18.8 19.9 9.7 38.1 22.7 53.7 38.4 15.7 15.6 28.6 33.8 38.3 53.8 9.6 19.9 15.9 41.3 18.6 63.3q4.8 62.2 7.2 124.6zm-83.6 246.2q2.4-60.7 2.4-121.4 0-60.8-2.3-121.5-2.4-60.7-7-121.3c-0.7-6.1-2-12.1-3.8-18-1.8-5.8-4-11.5-6.8-17-2.8-5.5-6-10.7-9.7-15.6-3.6-5-7.7-9.6-12.2-13.8-4.4-4.5-9.1-8.6-14.2-12.4-5.1-3.7-10.4-7-16.1-9.8-5.6-2.8-11.5-5.2-17.5-7.1-6-1.8-12.2-3.2-18.4-4q-91.3-8.6-183-12.9-91.6-4.3-183.4-4.3-91.7 0-183.4 4.3-91.6 4.3-183 12.9c-6.2 0.8-12.4 2.2-18.4 4-6 1.9-11.9 4.3-17.5 7.1-5.6 2.8-11 6.1-16.1 9.8-5.1 3.8-9.8 7.9-14.2 12.4-4.5 4.2-8.5 8.8-12.2 13.8-3.7 4.9-6.9 10.1-9.6 15.6-2.8 5.5-5.1 11.2-6.8 17-1.8 5.9-3 11.9-3.8 18q-4.7 60.6-7 121.3-2.3 60.8-2.3 121.5 0 60.8 2.3 121.5 2.3 60.8 7 121.4c0.8 6 2 12 3.8 17.9 1.7 5.8 4 11.5 6.7 17 2.8 5.4 6 10.6 9.6 15.5 3.7 4.9 7.7 9.5 12.2 13.7 4.4 4.5 9.1 8.7 14.2 12.4 5.1 3.7 10.5 7 16.1 9.8 5.6 2.9 11.5 5.2 17.5 7.1 6 1.8 12.2 3.2 18.4 4 27.3 2.5 54.9 4.9 82.3 6.8 10.8 0.8 21.4 3.6 31.2 8.4 9.8 4.7 18.6 11.1 26 19.1 7.4 7.9 13.2 17.2 17.2 27.3 4 10.1 6 20.9 6 31.7v110.6l139.9-140c7.3-7.3 15.3-13.9 23.8-19.6 8.6-5.8 17.7-10.7 27.2-14.8 9.5-4 19.4-7.1 29.5-9.2 10.1-2.1 20.4-3.2 30.7-3.3q40-0.5 79.9-1.8 39.9-1.3 79.8-3.4 39.9-2.2 79.8-5.1 39.8-2.9 79.6-6.6c6.2-0.8 12.4-2.2 18.4-4 6-1.9 11.9-4.2 17.5-7.1 5.6-2.8 11-6.1 16.1-9.8 5.1-3.7 9.8-7.9 14.2-12.4 4.5-4.2 8.5-8.8 12.2-13.7 3.7-5 6.9-10.2 9.7-15.7 2.7-5.4 5-11.1 6.8-17 1.8-5.9 3-11.9 3.8-18q4.6-60.6 6.9-121.3z"/>
		<path id="Path_86" class="s3" d="m405.7 611.6q-2.8 0-5.5-0.5-2.7-0.4-5.4-1.2-2.6-0.8-5.1-2-2.5-1.2-4.8-2.8l-158.1-108.2c-4.9-3.4-9-7.9-11.8-13.2-2.8-5.3-4.2-11.2-4.2-17.2 0-6 1.4-11.9 4.2-17.2 2.8-5.3 6.9-9.8 11.8-13.2l158.1-108.3c8.1-5.5 18-7.6 27.6-5.8 9.6 1.8 18.1 7.4 23.6 15.5 5.5 8 7.6 17.9 5.8 27.5-1.8 9.6-7.3 18.1-15.4 23.6l-113.7 77.9 113.7 77.8c6.5 4.5 11.4 10.9 14 18.3 2.5 7.4 2.7 15.5 0.4 23-2.4 7.5-7 14.1-13.4 18.8-6.3 4.6-13.9 7.2-21.8 7.2z"/>
		<g id="Group_55">
			<path id="Path_84" class="s1" d="m1261.7 904.9c4.5-4.2 8.6-8.8 12.2-13.7 3.7-4.9 6.9-10.2 9.7-15.6 2.7-5.5 5-11.2 6.8-17.1 1.7-5.9 3-11.9 3.7-18q4.7-60.6 7-121.3 2.4-60.7 2.4-121.5 0-60.8-2.4-121.5-2.3-60.7-7-121.3c-1.7-10.8-4.9-21.4-9.5-31.3-4.6-9.9-10.6-19.2-17.7-27.4-7.2-8.3-15.5-15.6-24.6-21.5-9.2-6-19.2-10.7-29.6-13.9q-3-0.9-5.8-2.2-2.8-1.4-5.4-3.1-2.6-1.7-4.9-3.8-2.3-2.1-4.2-4.5 5.1 70.1 7.7 140.4 2.5 70.2 2.4 140.6 0 70.3-2.8 140.5-2.7 70.3-8 140.4c-0.9 7.1-2.4 14.2-4.5 21.1-2.1 6.9-4.8 13.6-8.1 20.1-3.2 6.4-7.1 12.6-11.4 18.4-4.3 5.8-9.1 11.2-14.3 16.2-5.2 5.3-10.8 10.2-16.8 14.6-6 4.4-12.3 8.2-19 11.6-6.6 3.3-13.5 6.1-20.6 8.3-7.1 2.2-14.4 3.8-21.7 4.7-125.5 11.8-252.1 18.4-376.1 19.9q-6 0.1-12 0.6-6 0.5-11.9 1.4-5.9 0.8-11.8 2.1-5.9 1.2-11.7 2.8c42.8 2.7 71.5 3.5 130 4.2 10.3 0.1 20.6 1.2 30.7 3.3 10.1 2.1 20 5.2 29.5 9.2 9.5 4 18.6 8.9 27.2 14.7 8.5 5.8 16.5 12.4 23.8 19.7l139.8 139.9v-110.3c0.1-10.9 2.1-21.6 6.1-31.7 3.9-10.1 9.8-19.3 17.1-27.3 7.4-7.9 16.2-14.4 25.9-19.1 9.8-4.8 20.3-7.6 31.1-8.4 27.4-2 55.1-4.3 82.3-6.9 6.3-0.8 12.5-2.1 18.5-4 6-1.8 11.9-4.2 17.5-7 5.7-2.9 11.1-6.2 16.2-9.9 5-3.7 9.8-7.9 14.2-12.4z"/>
		</g>
		<g id="Group_56">
			<path id="Path_85" class="s3" d="m711.4 611.6c-7.8 0-15.5-2.6-21.8-7.2-6.4-4.7-11-11.3-13.4-18.8-2.3-7.5-2.1-15.6 0.4-23 2.6-7.4 7.5-13.8 14-18.3l113.7-77.8-113.7-77.8c-8.1-5.6-13.6-14.1-15.4-23.7-1.8-9.6 0.3-19.5 5.8-27.5 5.5-8.1 14-13.7 23.6-15.5 9.6-1.8 19.5 0.3 27.6 5.8l158.1 108.3c4.9 3.4 9 7.9 11.8 13.2 2.8 5.3 4.2 11.2 4.2 17.2 0 6-1.4 11.9-4.2 17.2-2.8 5.3-6.9 9.8-11.8 13.2l-158.1 108.2q-2.3 1.6-4.8 2.8-2.5 1.2-5.1 2-2.7 0.8-5.4 1.2-2.7 0.5-5.5 0.5z"/>
		</g>
		<g id="Group_58">
			<path id="Path_87" class="s3" d="m504.6 719.7c-5.6 0-11.1-1.3-16.1-3.7-5-2.5-9.5-6.1-12.9-10.5-3.5-4.4-5.8-9.5-7-15-1.2-5.5-1.1-11.2 0.3-16.6l108.2-433c2.4-9.4 8.4-17.6 16.8-22.6 8.3-5 18.4-6.5 27.8-4.2 9.5 2.4 17.7 8.4 22.7 16.8 5 8.4 6.5 18.4 4.1 27.9l-108.1 433.1c-1 3.9-2.7 7.7-4.9 11.1-2.2 3.4-5 6.4-8.2 8.9-3.2 2.5-6.8 4.5-10.7 5.8-3.8 1.3-7.9 2-12 2z"/>
		</g>
	</g>
</svg>